<?xml version="1.0" encoding="UTF-8" standalone="no"?><svg xmlns="http://www.w3.org/2000/svg" xmlns:xlink="http://www.w3.org/1999/xlink" contentScriptType="application/ecmascript" contentStyleType="text/css" height="327px" preserveAspectRatio="none" style="width:331px;height:327px;" version="1.1" viewBox="0 0 331 327" width="331px" zoomAndPan="magnify"><defs><filter height="300%" id="fm9mbx12chkxv" width="300%" x="-1" y="-1"><feGaussianBlur result="blurOut" stdDeviation="2.0"/><feColorMatrix in="blurOut" result="blurOut2" type="matrix" values="0 0 0 0 0 0 0 0 0 0 0 0 0 0 0 0 0 0 .4 0"/><feOffset dx="4.0" dy="4.0" in="blurOut2" result="blurOut3"/><feBlend in="SourceGraphic" in2="blurOut3" mode="normal"/></filter></defs><g><ellipse cx="16" cy="160" fill="#000000" filter="url(#fm9mbx12chkxv)" rx="10" ry="10" style="stroke:none;stroke-width:1.0;"/><g id="Started"><rect fill="#FEFECE" filter="url(#fm9mbx12chkxv)" height="50" rx="12.5" ry="12.5" style="stroke:#A80036;stroke-width:1.5;" width="66" x="91" y="135"/><line style="stroke:#A80036;stroke-width:1.5;" x1="91" x2="157" y1="162.6094" y2="162.6094"/><text fill="#000000" font-family="sans-serif" font-size="14" lengthAdjust="spacingAndGlyphs" textLength="46" x="101" y="154.5332">Started</text></g><g id="Paused"><rect fill="#FEFECE" filter="url(#fm9mbx12chkxv)" height="50" rx="12.5" ry="12.5" style="stroke:#A80036;stroke-width:1.5;" width="68" x="90" y="7"/><line style="stroke:#A80036;stroke-width:1.5;" x1="90" x2="158" y1="34.6094" y2="34.6094"/><text fill="#000000" font-family="sans-serif" font-size="14" lengthAdjust="spacingAndGlyphs" textLength="48" x="100" y="26.5332">Paused</text></g><g id="Cancelled"><rect fill="#FEFECE" filter="url(#fm9mbx12chkxv)" height="50" rx="12.5" ry="12.5" style="stroke:#A80036;stroke-width:1.5;" width="83" x="133.5" y="263"/><line style="stroke:#A80036;stroke-width:1.5;" x1="133.5" x2="216.5" y1="290.6094" y2="290.6094"/><text fill="#000000" font-family="sans-serif" font-size="14" lengthAdjust="spacingAndGlyphs" textLength="63" x="143.5" y="282.5332">Cancelled</text></g><g id="Finished"><rect fill="#FEFECE" filter="url(#fm9mbx12chkxv)" height="50" rx="12.5" ry="12.5" style="stroke:#A80036;stroke-width:1.5;" width="74" x="243" y="135"/><line style="stroke:#A80036;stroke-width:1.5;" x1="243" x2="317" y1="162.6094" y2="162.6094"/><text fill="#000000" font-family="sans-serif" font-size="14" lengthAdjust="spacingAndGlyphs" textLength="54" x="253" y="154.5332">Finished</text></g><ellipse cx="271" cy="288" fill="none" filter="url(#fm9mbx12chkxv)" rx="10" ry="10" style="stroke:#000000;stroke-width:1.0;"/><ellipse cx="271.5" cy="288.5" fill="#000000" rx="6" ry="6" style="stroke:none;stroke-width:1.0;"/><!--MD5=[f665e10249fbf47f7a952468bb13b4c1]
link *start to Started--><path d="M26.36,160 C39.94,160 64.54,160 85.65,160 " fill="none" id="*start-to-Started" style="stroke:#A80036;stroke-width:1.0;"/><polygon fill="#A80036" points="90.65,160,81.65,156,85.65,160,81.65,164,90.65,160" style="stroke:#A80036;stroke-width:1.0;"/><text fill="#000000" font-family="sans-serif" font-size="13" lengthAdjust="spacingAndGlyphs" textLength="28" x="44.5" y="153.4951">Start</text><!--MD5=[122ecaf4090e037126a9608486901437]
reverse link Paused to Started--><path d="M128.29,62.36 C129.72,75.41 130.78,90.96 130,105 C129.46,114.79 128.37,125.54 127.26,134.85 " fill="none" id="Paused-backto-Started" style="stroke:#A80036;stroke-width:1.0;"/><polygon fill="#A80036" points="127.71,57.31,124.7639,66.7079,128.281,62.2773,132.7116,65.7944,127.71,57.31" style="stroke:#A80036;stroke-width:1.0;"/><text fill="#000000" font-family="sans-serif" font-size="13" lengthAdjust="spacingAndGlyphs" textLength="37" x="132" y="101.4951">Pause</text><!--MD5=[69a84acd9569ee0fbcc4b9705bda39b8]
link Paused to Started--><path d="M93.28,57.12 C80.26,70.43 69.43,87.73 76,105 C79.54,114.3 85.49,123.02 92.02,130.63 " fill="none" id="Paused-to-Started" style="stroke:#A80036;stroke-width:1.0;"/><polygon fill="#A80036" points="95.7,134.74,92.6704,125.3687,92.3623,131.0172,86.7138,130.7091,95.7,134.74" style="stroke:#A80036;stroke-width:1.0;"/><text fill="#000000" font-family="sans-serif" font-size="13" lengthAdjust="spacingAndGlyphs" textLength="48" x="77" y="101.4951">Resume</text><!--MD5=[466eebf9e46ba5746f27083f8febb90b]
link Started to Cancelled--><path d="M133.83,185.29 C142.23,206.04 154.32,235.92 163.23,257.93 " fill="none" id="Started-to-Cancelled" style="stroke:#A80036;stroke-width:1.0;"/><polygon fill="#A80036" points="165.2,262.78,165.5348,252.9368,163.3258,258.1446,158.1181,255.9356,165.2,262.78" style="stroke:#A80036;stroke-width:1.0;"/><text fill="#000000" font-family="sans-serif" font-size="13" lengthAdjust="spacingAndGlyphs" textLength="40" x="154" y="229.4951">Cancel</text><!--MD5=[37bce8f6b47075f88ed7ddeb863ee30d]
link Started to Finished--><path d="M157.08,160 C180.55,160 212.24,160 237.56,160 " fill="none" id="Started-to-Finished" style="stroke:#A80036;stroke-width:1.0;"/><polygon fill="#A80036" points="242.86,160,233.86,156,237.86,160,233.86,164,242.86,160" style="stroke:#A80036;stroke-width:1.0;"/><text fill="#000000" font-family="sans-serif" font-size="13" lengthAdjust="spacingAndGlyphs" textLength="49" x="175.5" y="153.4951">Finished</text><!--MD5=[f3edc34042f787149cb4b2f443172939]
link Finished to *end--><path d="M278.26,185.29 C276.42,211.16 273.55,251.23 272.03,272.54 " fill="none" id="Finished-to-*end" style="stroke:#A80036;stroke-width:1.0;"/><polygon fill="#A80036" points="271.66,277.77,276.2928,269.0788,272.0173,272.7828,268.3133,268.5072,271.66,277.77" style="stroke:#A80036;stroke-width:1.0;"/><!--MD5=[858287a5933bdf9eff6768a852310904]
link Cancelled to *end--><path d="M216.62,288 C229.63,288 242.63,288 255.63,288 " fill="none" id="Cancelled-to-*end" style="stroke:#A80036;stroke-width:1.0;"/><polygon fill="#A80036" points="260.8,288,251.8,284,255.8,288,251.8,292,260.8,288" style="stroke:#A80036;stroke-width:1.0;"/><!--MD5=[8a597334962955fa2a2c4d2f625f4727]
@startuml Р”РёР°РіСЂР°РјРјР° СЃРѕСЃС‚РѕСЏРЅРёР№ РґРµР»Р°
[*] -> Started: Start
Started -up-> Paused: Pause
Paused -> Started: Resume
Started -down->Cancelled: Cancel
Started -> Finished: Finished
Finished -down-> [*]
Cancelled -> [*] 
@enduml

PlantUML version 1.2020.26(Mon Dec 21 20:45:07 MSK 2020)
(GPL source distribution)
Java Runtime: Java(TM) SE Runtime Environment
JVM: Java HotSpot(TM) 64-Bit Server VM
Default Encoding: Cp1251
Language: ru
Country: RU
--></g></svg>