<?xml version="1.0" encoding="UTF-8" standalone="no"?><svg xmlns="http://www.w3.org/2000/svg" xmlns:xlink="http://www.w3.org/1999/xlink" contentScriptType="application/ecmascript" contentStyleType="text/css" height="327px" preserveAspectRatio="none" style="width:317px;height:327px;" version="1.1" viewBox="0 0 317 327" width="317px" zoomAndPan="magnify"><defs><filter height="300%" id="ffu44qk4z9ra1" width="300%" x="-1" y="-1"><feGaussianBlur result="blurOut" stdDeviation="2.0"/><feColorMatrix in="blurOut" result="blurOut2" type="matrix" values="0 0 0 0 0 0 0 0 0 0 0 0 0 0 0 0 0 0 .4 0"/><feOffset dx="4.0" dy="4.0" in="blurOut2" result="blurOut3"/><feBlend in="SourceGraphic" in2="blurOut3" mode="normal"/></filter></defs><g><ellipse cx="16" cy="160" fill="#000000" filter="url(#ffu44qk4z9ra1)" rx="10" ry="10" style="stroke:none;stroke-width:1.0;"/><g id="Started"><rect fill="#FEFECE" filter="url(#ffu44qk4z9ra1)" height="50" rx="12.5" ry="12.5" style="stroke:#A80036;stroke-width:1.5;" width="66" x="91" y="135"/><line style="stroke:#A80036;stroke-width:1.5;" x1="91" x2="157" y1="162.6094" y2="162.6094"/><text fill="#000000" font-family="sans-serif" font-size="14" lengthAdjust="spacingAndGlyphs" textLength="46" x="101" y="154.5332">Started</text></g><g id="Paused"><rect fill="#FEFECE" filter="url(#ffu44qk4z9ra1)" height="50" rx="12.5" ry="12.5" style="stroke:#A80036;stroke-width:1.5;" width="68" x="90" y="7"/><line style="stroke:#A80036;stroke-width:1.5;" x1="90" x2="158" y1="34.6094" y2="34.6094"/><text fill="#000000" font-family="sans-serif" font-size="14" lengthAdjust="spacingAndGlyphs" textLength="48" x="100" y="26.5332">Paused</text></g><g id="Cancelled"><rect fill="#FEFECE" filter="url(#ffu44qk4z9ra1)" height="50" rx="12.5" ry="12.5" style="stroke:#A80036;stroke-width:1.5;" width="83" x="123.5" y="263"/><line style="stroke:#A80036;stroke-width:1.5;" x1="123.5" x2="206.5" y1="290.6094" y2="290.6094"/><text fill="#000000" font-family="sans-serif" font-size="14" lengthAdjust="spacingAndGlyphs" textLength="63" x="133.5" y="282.5332">Cancelled</text></g><g id="Finished"><rect fill="#FEFECE" filter="url(#ffu44qk4z9ra1)" height="50" rx="12.5" ry="12.5" style="stroke:#A80036;stroke-width:1.5;" width="74" x="229" y="135"/><line style="stroke:#A80036;stroke-width:1.5;" x1="229" x2="303" y1="162.6094" y2="162.6094"/><text fill="#000000" font-family="sans-serif" font-size="14" lengthAdjust="spacingAndGlyphs" textLength="54" x="239" y="154.5332">Finished</text></g><ellipse cx="259" cy="288" fill="none" filter="url(#ffu44qk4z9ra1)" rx="10" ry="10" style="stroke:#000000;stroke-width:1.0;"/><ellipse cx="259.5" cy="288.5" fill="#000000" rx="6" ry="6" style="stroke:none;stroke-width:1.0;"/><!--MD5=[f665e10249fbf47f7a952468bb13b4c1]
link *start to Started--><path d="M26.36,160 C39.94,160 64.54,160 85.65,160 " fill="none" id="*start-to-Started" style="stroke:#A80036;stroke-width:1.0;"/><polygon fill="#A80036" points="90.65,160,81.65,156,85.65,160,81.65,164,90.65,160" style="stroke:#A80036;stroke-width:1.0;"/><text fill="#000000" font-family="sans-serif" font-size="13" lengthAdjust="spacingAndGlyphs" textLength="28" x="44.5" y="153.4951">Start</text><!--MD5=[122ecaf4090e037126a9608486901437]
reverse link Paused to Started--><path d="M128.29,62.36 C129.72,75.41 130.78,90.96 130,105 C129.46,114.79 128.37,125.54 127.26,134.85 " fill="none" id="Paused-backto-Started" style="stroke:#A80036;stroke-width:1.0;"/><polygon fill="#A80036" points="127.71,57.31,124.7639,66.7079,128.281,62.2773,132.7116,65.7944,127.71,57.31" style="stroke:#A80036;stroke-width:1.0;"/><text fill="#000000" font-family="sans-serif" font-size="13" lengthAdjust="spacingAndGlyphs" textLength="37" x="132" y="101.4951">Pause</text><!--MD5=[69a84acd9569ee0fbcc4b9705bda39b8]
link Paused to Started--><path d="M93.28,57.12 C80.26,70.43 69.43,87.73 76,105 C79.54,114.3 85.49,123.02 92.02,130.63 " fill="none" id="Paused-to-Started" style="stroke:#A80036;stroke-width:1.0;"/><polygon fill="#A80036" points="95.7,134.74,92.6704,125.3687,92.3623,131.0172,86.7138,130.7091,95.7,134.74" style="stroke:#A80036;stroke-width:1.0;"/><text fill="#000000" font-family="sans-serif" font-size="13" lengthAdjust="spacingAndGlyphs" textLength="48" x="77" y="101.4951">Resume</text><!--MD5=[466eebf9e46ba5746f27083f8febb90b]
link Started to Cancelled--><path d="M131.91,185.29 C138.65,206.04 148.38,235.92 155.54,257.93 " fill="none" id="Started-to-Cancelled" style="stroke:#A80036;stroke-width:1.0;"/><polygon fill="#A80036" points="157.12,262.78,158.1218,252.9822,155.5646,258.0281,150.5187,255.4709,157.12,262.78" style="stroke:#A80036;stroke-width:1.0;"/><text fill="#000000" font-family="sans-serif" font-size="13" lengthAdjust="spacingAndGlyphs" textLength="40" x="148" y="229.4951">Cancel</text><!--MD5=[37bce8f6b47075f88ed7ddeb863ee30d]
link Started to Finished--><path d="M157.29,160 C177.18,160 202.62,160 223.89,160 " fill="none" id="Started-to-Finished" style="stroke:#A80036;stroke-width:1.0;"/><polygon fill="#A80036" points="228.92,160,219.92,156,223.92,160,219.92,164,228.92,160" style="stroke:#A80036;stroke-width:1.0;"/><text fill="#000000" font-family="sans-serif" font-size="13" lengthAdjust="spacingAndGlyphs" textLength="35" x="175.5" y="153.4951">Finish</text><!--MD5=[f3edc34042f787149cb4b2f443172939]
link Finished to *end--><path d="M264.65,185.29 C263.21,211.16 260.99,251.23 259.8,272.54 " fill="none" id="Finished-to-*end" style="stroke:#A80036;stroke-width:1.0;"/><polygon fill="#A80036" points="259.51,277.77,264.0169,269.0129,259.7952,272.7781,256.03,268.5565,259.51,277.77" style="stroke:#A80036;stroke-width:1.0;"/><!--MD5=[858287a5933bdf9eff6768a852310904]
link Cancelled to *end--><path d="M206.86,288 C219.1,288 231.33,288 243.57,288 " fill="none" id="Cancelled-to-*end" style="stroke:#A80036;stroke-width:1.0;"/><polygon fill="#A80036" points="248.82,288,239.82,284,243.82,288,239.82,292,248.82,288" style="stroke:#A80036;stroke-width:1.0;"/><!--MD5=[e377c16617f3136cccf1411a53daa360]
@startuml ToDo State Diagram
[*] -> Started: Start
Started -up-> Paused: Pause
Paused -> Started: Resume
Started -down->Cancelled: Cancel
Started -> Finished: Finish
Finished -down-> [*]
Cancelled -> [*] 
@enduml

PlantUML version 1.2020.26(Mon Dec 21 20:45:07 MSK 2020)
(GPL source distribution)
Java Runtime: Java(TM) SE Runtime Environment
JVM: Java HotSpot(TM) 64-Bit Server VM
Default Encoding: Cp1251
Language: ru
Country: RU
--></g></svg>